<?xml version="1.0" encoding="iso-8859-1"?>
<!-- Generator: Adobe Illustrator 18.0.0, SVG Export Plug-In . SVG Version: 6.00 Build 0)  -->
<!DOCTYPE svg PUBLIC "-//W3C//DTD SVG 1.1//EN" "http://www.w3.org/Graphics/SVG/1.1/DTD/svg11.dtd">
<svg version="1.1" id="_x31_" xmlns="http://www.w3.org/2000/svg" xmlns:xlink="http://www.w3.org/1999/xlink" x="0px" y="0px"
	 viewBox="0 0 512 512" style="enable-background:new 0 0 512 512;" xml:space="preserve">
<g>
	<rect style="fill:#99D4D9;" width="512" height="512"/>
	<polygon style="opacity:0.1;fill:#231815;" points="512,296.09 512,512 181.505,512 108.85,439.345 250.88,277.555 265.625,49.715 
			"/>
	<g>
		<path style="fill:#DA6D64;" d="M413.66,440.175h-55.79l-43.66-53.645h-21.825l-9.71,53.645H229.32l-9.71-53.645h-21.825
			l-43.658,53.645h-55.79c0,0,51.565-54.06,89.983-133.035c8.805-18.12,16.93-37.54,23.58-57.935
			c6.715-20.59,11.935-42.17,14.83-64.37c0.365-2.71,0.695-5.435,0.975-8.175c0.85-8.064,1.365-16.205,1.54-24.415
			c0.05-2.005,0.075-4.015,0.075-6.03v-51.5h53.355v51.5c0,2.015,0.025,4.025,0.075,6.03c0.175,8.21,0.69,16.35,1.54,24.415
			c0.275,2.74,0.61,5.465,0.975,8.175c2.895,22.2,8.115,43.78,14.825,64.37c6.651,20.395,14.775,39.815,23.585,57.935
			C362.095,386.115,413.66,440.175,413.66,440.175z"/>
		<path style="fill:#C52840;" d="M300.09,249.205H211.9c-6.65,20.395-14.775,39.815-23.58,57.935h135.355L300.09,249.205z"/>
		<path style="fill:#C52840;" d="M285.265,184.835H226.73l2.515-32.59h53.505c0.175,8.21,0.69,16.35,1.54,24.415
			C284.565,179.4,284.9,182.125,285.265,184.835z"/>
		<rect x="178.38" y="236.34" style="fill:#EAE9E9;" width="155.235" height="57.93"/>
		<rect x="212.34" y="144.065" style="fill:#EAE9E9;" width="87.315" height="32.595"/>
		<rect x="245.085" y="49.66" style="fill:#DA6D64;" width="21.825" height="60.075"/>
		<rect x="229.32" y="111.88" style="fill:#EAE9E9;" width="53.36" height="10.73"/>
		<polygon style="fill:#EAE9E9;" points="287.485,199.265 224.515,199.265 224.48,199.42 221.715,213.33 290.285,213.33 		"/>
		<path style="opacity:0.1;fill:#231815;" d="M323.675,307.14l-5.245-12.87h15.185v-57.93h-37.46
			c-2.225-7.715-4.225-15.555-5.965-23.485l-2.605-13.115c-0.885-4.94-1.67-9.905-2.32-14.905c-0.365-2.71-0.7-5.435-0.975-8.175
			l0,0h15.365v-32.595h-16.98V122.61h0.005v-10.73h-0.005V94.715H266.91V49.66h-11.12v390.515h26.885l9.71-53.645h21.825
			l43.66,53.645h55.79C413.66,440.175,362.095,386.115,323.675,307.14z"/>
	</g>
</g>
</svg>
